<svg width="1001" height="1001" viewBox="0 0 1001 1001" fill="none" xmlns="http://www.w3.org/2000/svg">
<path d="M437.838 208.289C437.789 208.202 437.746 208.111 437.708 208.019L437.768 207.959C437.8 208.067 437.823 208.177 437.838 208.289Z" fill="#3B82F6"/>
<path d="M438.076 209.49C437.983 209.163 437.916 208.828 437.876 208.49C438.039 208.797 438.109 209.144 438.076 209.49Z" fill="#3B82F6"/>
<path d="M482.998 553.819C482.748 554.389 482.538 554.949 482.288 555.539C463.828 600.489 450.948 654.269 447.958 718.629C396.708 593.089 311.688 532.319 235.958 503.139C237.318 461.189 243.148 388.239 266.958 343.419C266.958 343.419 307.278 352.849 358.028 392.609C398.068 423.979 444.658 474.289 482.998 553.819Z" fill="#3B82F6"/>
<path d="M490.559 553.14L488.829 552.75C489.079 552.15 489.299 551.58 489.539 551C489.879 551.7 490.229 552.49 490.559 553.14Z" fill="#3B82F6"/>
<path d="M490.559 553.14L488.829 552.75C489.079 552.15 489.299 551.58 489.539 551C489.879 551.7 490.229 552.49 490.559 553.14Z" fill="#3B82F6"/>
<path d="M457.42 841.299C456.93 841.299 456.42 841.299 455.94 841.299C264.72 841.299 106.32 696.39 77.9393 507.07C76.0293 490.91 75.7393 481.26 75.7393 481.26C75.7393 481.26 144.74 474.26 224.74 505.75C295.69 533.68 375.31 591.83 423.3 711.95V712.04C423.59 712.76 423.88 713.469 424.14 714.219C438.48 750.569 449.9 792.559 457.36 841.029C457.39 841.119 457.42 841.209 457.42 841.299Z" fill="#3B82F6"/>
<path d="M902.548 487.06C884.278 701.49 710.328 869.859 498.228 870.719C498.348 860.979 501.398 750.91 567.838 651.12C597.535 606.089 637.431 568.693 684.288 541.969C685.618 541.199 686.908 540.47 688.288 539.74C689.918 538.81 691.588 537.919 693.288 537.029C693.718 536.779 694.178 536.549 694.648 536.299C696.278 535.439 697.908 534.58 699.578 533.75C700.438 533.31 701.298 532.86 702.198 532.45C703.978 531.53 705.798 530.63 707.618 529.77C709.438 528.91 711.038 528.149 712.768 527.359L713.378 527.07C714.678 526.46 715.968 525.89 717.288 525.32C718.928 524.55 720.558 523.849 722.218 523.149C727.058 521.049 732.048 519.049 737.138 517.149L738.898 516.479C741.048 515.649 743.208 514.859 745.398 514.089C789.398 498.489 841.348 488.58 902.548 487.06Z" fill="#3B82F6"/>
<path d="M613.876 387.579C570.546 420.399 521.736 472.129 489.536 550.999C451.226 469.899 404.766 418.579 364.806 386.589C388.406 342.589 441.896 253.159 490.556 211.329C490.556 211.329 564.226 284.099 613.876 387.579Z" fill="#3B82F6"/>
<path d="M741.028 505.72C738.888 506.47 736.768 507.25 734.648 508.06L732.928 508.72C727.928 510.59 723.048 512.56 718.298 514.62C716.668 515.31 715.068 515.99 713.468 516.74C712.168 517.31 710.898 517.87 709.628 518.46L709.018 518.74C707.328 519.52 705.638 520.3 704.018 521.12C702.398 521.94 700.448 522.83 698.688 523.74C697.818 524.14 696.968 524.58 696.128 525.02C694.488 525.83 692.888 526.67 691.288 527.52C690.838 527.77 690.378 527.98 689.958 528.23C688.328 529.11 686.698 529.98 685.088 530.89C683.758 531.61 682.488 532.32 681.188 533.07C635.206 559.282 596.05 595.964 566.898 640.14C501.738 738.02 498.738 846 498.618 855.55L498.468 855.27C490.668 804.59 478.738 760.69 463.738 722.69L464.918 718.82L462.868 720.41C462.868 720.41 462.868 720.41 462.868 720.35C465.798 655.97 478.398 602.14 496.478 557.21L498.168 557.58L497.168 555.49C528.758 478.12 576.638 427.38 619.168 395.19C669.258 357.29 711.958 345.02 711.958 345.02C734.738 373.18 739.938 459.32 741.028 505.72Z" fill="#3B82F6"/>
<path d="M452.567 729.839V729.74C452.567 729.74 452.567 729.799 452.567 729.839Z" stroke="#CCDDE2" stroke-width="3.97" stroke-miterlimit="10"/>
<path d="M489.529 551.979C489.269 552.589 489.039 553.19 488.779 553.83C469.289 602.29 455.699 660.34 452.529 729.77C398.429 594.34 308.659 528.769 228.669 497.299C230.099 452.04 236.259 373.35 261.419 324.99C261.419 324.99 303.989 335.16 357.579 378.06C399.859 411.9 449.049 466.179 489.529 551.979Z" stroke="#CCDDE2" stroke-width="3.97" stroke-miterlimit="10"/>
<path d="M490.608 554.24L488.778 553.83C489.038 553.19 489.268 552.589 489.528 551.979C489.888 552.719 490.228 553.49 490.608 554.24Z" stroke="#CCDDE2" stroke-width="3.97" stroke-miterlimit="10"/>
<path d="M452.567 729.839V729.74C452.567 729.74 452.567 729.799 452.567 729.839Z" stroke="#CCDDE2" stroke-width="3.97" stroke-miterlimit="10"/>
<path d="M490.608 554.24L488.778 553.83C489.038 553.19 489.268 552.589 489.528 551.979C489.888 552.719 490.228 553.49 490.608 554.24Z" stroke="#CCDDE2" stroke-width="3.97" stroke-miterlimit="10"/>
<path opacity="0.9" d="M159.739 715.63C156.209 711.32 152.739 706.909 149.399 702.429C104.438 642.614 74.8201 572.692 63.1384 498.779C60.2284 480.669 60.6784 469.69 60.6784 469.69C60.6784 469.69 138.429 461.809 228.679 497.299C308.679 528.779 398.419 594.3 452.529 729.77V729.88C452.859 730.69 453.199 731.499 453.469 732.339C469.669 773.339 482.529 820.659 490.949 875.339C490.949 875.439 490.949 875.539 490.949 875.649C490.379 875.649 489.839 875.649 489.269 875.649C377.699 875.489 275.949 830.989 199.229 758.289C191.229 750.719 183.439 742.81 175.999 734.62" stroke="#CCDDE2" stroke-width="3.97" stroke-miterlimit="10"/>
<path d="M452.567 729.839V729.74C452.567 729.74 452.567 729.799 452.567 729.839Z" stroke="#CCDDE2" stroke-width="3.97" stroke-miterlimit="10"/>
<path opacity="0.9" d="M918.846 469.719C899.516 696.569 715.516 874.659 491.126 875.569C491.256 865.269 494.486 748.829 564.756 643.259C596.183 595.626 638.394 556.07 687.966 527.799C689.376 526.989 690.746 526.219 692.176 525.449C693.906 524.449 695.666 523.529 697.426 522.579C697.876 522.309 698.366 522.079 698.856 521.809C700.586 520.899 702.316 519.989 704.076 519.119C704.986 518.639 705.896 518.119 706.846 517.729C708.736 516.729 710.656 515.819 712.586 514.909C714.516 513.999 716.196 513.189 718.026 512.349L718.676 512.039C720.046 511.399 721.416 510.799 722.816 510.189C724.546 509.379 726.266 508.639 728.026 507.899C733.146 505.679 738.426 503.559 743.806 501.539L745.666 500.829C747.946 499.959 750.226 499.109 752.546 498.309C799.156 481.769 854.116 471.329 918.846 469.719Z" stroke="#CCDDE2" stroke-width="3.97" stroke-miterlimit="10"/>
<path d="M621.059 379.11C575.229 413.82 523.589 468.54 489.529 551.98C449.049 466.18 399.859 411.9 357.579 378.06C382.579 331.49 439.139 236.91 490.579 192.66C490.609 192.66 568.479 269.64 621.059 379.11Z" stroke="#CCDDE2" stroke-width="3.97" stroke-miterlimit="10"/>
<path d="M189.49 626.93C189.5 626.864 189.5 626.795 189.49 626.729C189.49 626.659 189.49 626.589 189.49 626.459C189.474 626.346 189.474 626.233 189.49 626.12C189.518 626.36 189.565 626.597 189.63 626.83C189.615 626.856 189.595 626.878 189.571 626.895C189.546 626.912 189.519 626.924 189.49 626.93Z" fill="white"/>
<path d="M189.857 691.58C188.314 696.557 186.344 701.392 183.967 706.03C183.287 707.34 182.617 708.62 181.877 709.9C179.351 714.642 176.251 719.055 172.647 723.04C172.007 722.83 171.367 722.56 170.797 722.33C170.667 722.33 170.557 722.23 170.457 722.19C158.807 717.11 150.057 707.58 147.457 696.87C145.137 687.44 147.227 677.24 142.747 668.39C137.227 657.49 122.347 650.67 120.487 638.35C118.807 626.83 129.177 616.26 127.487 604.98C125.567 592.21 109.877 584.64 106.977 572.18C105.127 564.44 106.777 555.51 106.107 547.53C105.333 538.61 103.821 529.77 101.587 521.1C102.667 521.03 103.747 520.999 104.827 520.959C126.827 520.589 148.597 532.96 155.737 550.39C161.497 564.47 158.567 580.73 166.207 593.93C166.67 594.783 167.188 595.604 167.757 596.39C168.76 597.782 169.838 599.117 170.987 600.39L173.417 602.92C173.817 603.32 174.257 603.69 174.657 604.13C175.057 604.57 175.497 604.94 175.907 605.38C179.707 609.01 183.587 612.68 186.107 617.03C186.34 617.407 186.544 617.801 186.717 618.209C186.953 618.604 187.154 619.02 187.317 619.45C187.535 619.889 187.728 620.34 187.897 620.8C188.097 621.3 188.267 621.8 188.427 622.35C188.667 623.16 188.907 623.93 189.067 624.74C189.067 624.94 189.067 625.11 189.137 625.28C189.207 625.45 189.137 625.41 189.137 625.48C189.152 625.546 189.152 625.614 189.137 625.68C189.152 625.795 189.175 625.909 189.207 626.02V626.09C189.211 626.215 189.231 626.339 189.267 626.459C189.267 626.589 189.267 626.66 189.267 626.73C189.278 626.796 189.278 626.864 189.267 626.93V627L186.677 664.58C188.337 673.67 192.487 682.73 189.857 691.58Z" fill="white"/>
<path d="M209.418 600.359C211.108 592.209 211.238 583.66 215.078 575.88C222.218 561.54 243.078 551.129 264.948 550.459H265.348C267.348 550.459 269.348 550.46 271.348 550.56C269.085 558.015 267.542 565.669 266.738 573.419C265.998 580.319 267.738 588.039 265.828 594.669C262.758 605.439 246.428 611.98 244.448 622.99C242.688 632.75 253.498 641.88 251.718 651.81C249.798 662.45 234.308 668.34 228.588 677.81C223.968 685.46 226.128 694.239 223.738 702.359C220.938 711.619 211.738 719.869 199.628 724.209C198.848 724.479 198.148 724.75 197.368 724.99C196.958 725.09 196.488 725.259 196.088 725.359C195.948 725.259 195.818 725.12 195.648 724.99C191.738 721.66 187.358 716.04 183.728 709.99L183.998 706.149C186.374 701.511 188.345 696.677 189.888 691.7C192.518 682.85 188.368 673.79 186.888 664.7L189.478 627.12L190.288 626.45C190.584 626.232 190.864 625.995 191.128 625.74C195.128 622.51 199.448 619.41 202.538 615.74C206.378 611.23 208.168 606.279 209.308 601.089" fill="white"/>
<path d="M209.317 600.899C209.317 600.729 209.387 600.569 209.417 600.359L209.317 600.899Z" fill="white"/>
<path d="M209.418 600.33C209.418 600.54 209.348 600.7 209.318 600.87C208.178 606.06 206.388 611.01 202.548 615.52C199.458 619.19 195.148 622.29 191.138 625.52C190.875 625.775 190.594 626.012 190.298 626.23L189.488 626.93C189.502 626.887 189.502 626.842 189.488 626.8C189.457 626.684 189.421 626.57 189.378 626.459C189.362 626.346 189.362 626.232 189.378 626.12V626.05C189.346 625.938 189.323 625.824 189.308 625.709C189.323 625.643 189.323 625.576 189.308 625.51C189.323 625.478 189.331 625.444 189.331 625.41C189.331 625.375 189.323 625.341 189.308 625.31C189.283 625.128 189.246 624.947 189.198 624.77C189.038 623.96 188.798 623.19 188.558 622.38C188.398 621.87 188.228 621.33 188.028 620.83C187.859 620.37 187.665 619.919 187.448 619.48C187.306 619.041 187.104 618.623 186.848 618.24C186.675 617.832 186.471 617.437 186.238 617.06C183.718 612.71 179.838 609.06 176.038 605.41C175.628 604.97 175.198 604.53 174.788 604.16C174.378 603.79 173.948 603.35 173.548 602.95L171.118 600.42C169.969 599.147 168.891 597.811 167.888 596.42C167.888 596.42 170.128 557.489 190.028 545.709C208.818 534.489 209.418 593.76 209.418 600.33Z" fill="white"/>
<path d="M209.317 600.899C209.317 600.729 209.387 600.569 209.417 600.359L209.317 600.899Z" fill="white"/>
<path d="M189.458 626.799V626.959C189.468 626.893 189.468 626.826 189.458 626.76C189.458 626.69 189.458 626.62 189.458 626.49C189.442 626.377 189.442 626.262 189.458 626.149C189.442 626.366 189.442 626.583 189.458 626.799Z" fill="white"/>
<path d="M256.807 562.919C220.937 601.519 204.077 682.919 197.507 724.919C196.967 728.469 196.507 731.71 196.067 734.63" fill="white"/>
<path d="M260.118 758.279L243.618 855.64C243.227 858.3 241.909 860.735 239.897 862.518C237.884 864.3 235.306 865.314 232.618 865.38H146.358C143.648 865.311 141.051 864.277 139.034 862.464C137.018 860.651 135.714 858.178 135.358 855.49L120.138 758.279H260.118Z" fill="white"/>
<path d="M275.789 747.419C275.638 750.302 274.406 753.023 272.337 755.036C270.268 757.05 267.515 758.207 264.629 758.279H115.859C113.001 758.21 110.273 757.075 108.21 755.097C106.146 753.119 104.898 750.441 104.709 747.589C104.079 740.649 109.249 734.589 115.859 734.589H264.629C271.169 734.639 276.319 740.489 275.789 747.419Z" fill="white"/>
<path d="M189.556 627C189.553 626.782 189.516 626.565 189.446 626.359L189.556 627Z" fill="white"/>
<path d="M115.837 535.399C150.267 580.119 166.467 674.4 172.837 723.07C173.377 727.29 173.837 731.16 174.247 734.62" fill="white"/>
<path d="M192.586 582.919C188.276 596.189 188.066 609.59 188.586 618.08C188.724 620.82 189.014 623.551 189.456 626.26" fill="white"/>
<path d="M189.49 626.93C189.5 626.864 189.5 626.795 189.49 626.729C189.49 626.659 189.49 626.589 189.49 626.459C189.474 626.346 189.474 626.233 189.49 626.12C189.518 626.36 189.565 626.597 189.63 626.83C189.615 626.856 189.595 626.878 189.571 626.895C189.546 626.912 189.519 626.924 189.49 626.93Z" stroke="#CCDDE2" stroke-width="3.97" stroke-miterlimit="10"/>
<path d="M189.857 691.58C188.314 696.557 186.344 701.392 183.967 706.03C183.287 707.34 182.617 708.62 181.877 709.9C179.351 714.642 176.251 719.055 172.647 723.04C172.007 722.83 171.367 722.56 170.797 722.33C170.667 722.33 170.557 722.23 170.457 722.19C158.807 717.11 150.057 707.58 147.457 696.87C145.137 687.44 147.227 677.24 142.747 668.39C137.227 657.49 122.347 650.67 120.487 638.35C118.807 626.83 129.177 616.26 127.487 604.98C125.567 592.21 109.877 584.64 106.977 572.18C105.127 564.44 106.777 555.51 106.107 547.53C105.333 538.61 103.821 529.77 101.587 521.1C102.667 521.03 103.747 520.999 104.827 520.959C126.827 520.589 148.597 532.96 155.737 550.39C161.497 564.47 158.567 580.73 166.207 593.93C166.67 594.783 167.188 595.604 167.757 596.39C168.76 597.782 169.838 599.117 170.987 600.39L173.417 602.92C173.817 603.32 174.257 603.69 174.657 604.13C175.057 604.57 175.497 604.94 175.907 605.38C179.707 609.01 183.587 612.68 186.107 617.03C186.34 617.407 186.544 617.801 186.717 618.209C186.953 618.604 187.154 619.02 187.317 619.45C187.535 619.889 187.728 620.34 187.897 620.8C188.097 621.3 188.267 621.8 188.427 622.35C188.667 623.16 188.907 623.93 189.067 624.74C189.067 624.94 189.067 625.11 189.137 625.28C189.207 625.45 189.137 625.41 189.137 625.48C189.152 625.546 189.152 625.614 189.137 625.68C189.152 625.795 189.175 625.909 189.207 626.02V626.09C189.211 626.215 189.231 626.339 189.267 626.459C189.267 626.589 189.267 626.66 189.267 626.73C189.278 626.796 189.278 626.864 189.267 626.93V627L186.677 664.58C188.337 673.67 192.487 682.73 189.857 691.58Z" stroke="#CCDDE2" stroke-width="3.97" stroke-miterlimit="10"/>
<path d="M209.418 600.359C211.108 592.209 211.238 583.66 215.078 575.88C222.218 561.54 243.078 551.129 264.948 550.459H265.348C267.348 550.459 269.348 550.46 271.348 550.56C269.085 558.015 267.542 565.669 266.738 573.419C265.998 580.319 267.738 588.039 265.828 594.669C262.758 605.439 246.428 611.98 244.448 622.99C242.688 632.75 253.498 641.88 251.718 651.81C249.798 662.45 234.308 668.34 228.588 677.81C223.968 685.46 226.128 694.239 223.738 702.359C220.938 711.619 211.738 719.869 199.628 724.209C198.848 724.479 198.148 724.75 197.368 724.99C196.958 725.09 196.488 725.259 196.088 725.359C195.948 725.259 195.818 725.12 195.648 724.99C191.738 721.66 187.358 716.04 183.728 709.99L183.998 706.149C186.374 701.511 188.345 696.677 189.888 691.7C192.518 682.85 188.368 673.79 186.888 664.7L189.478 627.12L190.288 626.45C190.584 626.232 190.864 625.995 191.128 625.74C195.128 622.51 199.448 619.41 202.538 615.74C206.378 611.23 208.168 606.279 209.308 601.089" stroke="#CCDDE2" stroke-width="3.97" stroke-miterlimit="10"/>
<path d="M209.317 600.899C209.317 600.729 209.387 600.569 209.417 600.359" stroke="#CCDDE2" stroke-width="3.97" stroke-miterlimit="10"/>
<path d="M209.418 600.33C209.418 600.54 209.348 600.7 209.318 600.87C208.178 606.06 206.388 611.01 202.548 615.52C199.458 619.19 195.148 622.29 191.138 625.52C190.875 625.775 190.594 626.012 190.298 626.23L189.488 626.93C189.502 626.887 189.502 626.842 189.488 626.8C189.457 626.684 189.421 626.57 189.378 626.459C189.362 626.346 189.362 626.232 189.378 626.12V626.05C189.346 625.938 189.323 625.824 189.308 625.709C189.323 625.643 189.323 625.576 189.308 625.51C189.323 625.478 189.331 625.444 189.331 625.41C189.331 625.375 189.323 625.341 189.308 625.31C189.283 625.128 189.246 624.947 189.198 624.77C189.038 623.96 188.798 623.19 188.558 622.38C188.398 621.87 188.228 621.33 188.028 620.83C187.859 620.37 187.665 619.919 187.448 619.48C187.306 619.041 187.104 618.623 186.848 618.24C186.675 617.832 186.471 617.437 186.238 617.06C183.718 612.71 179.838 609.06 176.038 605.41C175.628 604.97 175.198 604.53 174.788 604.16C174.378 603.79 173.948 603.35 173.548 602.95L171.118 600.42C169.969 599.147 168.891 597.811 167.888 596.42C167.888 596.42 170.128 557.489 190.028 545.709C208.818 534.489 209.418 593.76 209.418 600.33Z" stroke="#CCDDE2" stroke-width="3.97" stroke-miterlimit="10"/>
<path d="M209.317 600.899C209.317 600.729 209.387 600.569 209.417 600.359" stroke="#CCDDE2" stroke-width="3.97" stroke-miterlimit="10"/>
<path d="M189.458 626.799V626.959C189.468 626.893 189.468 626.826 189.458 626.76C189.458 626.69 189.458 626.62 189.458 626.49C189.442 626.377 189.442 626.262 189.458 626.149C189.442 626.366 189.442 626.583 189.458 626.799Z" stroke="#CCDDE2" stroke-width="3.97" stroke-miterlimit="10"/>
<path d="M256.807 562.919C220.937 601.519 204.077 682.919 197.507 724.919C196.967 728.469 196.507 731.71 196.067 734.63" stroke="#CCDDE2" stroke-width="3.97" stroke-miterlimit="10"/>
<path d="M260.118 758.279L243.618 855.64C243.227 858.3 241.909 860.735 239.897 862.518C237.884 864.3 235.306 865.314 232.618 865.38H146.358C143.648 865.311 141.051 864.277 139.034 862.464C137.018 860.651 135.714 858.178 135.358 855.49L120.138 758.279H260.118Z" stroke="#CCDDE2" stroke-width="3.97" stroke-miterlimit="10"/>
<path d="M275.789 747.419C275.638 750.302 274.406 753.023 272.337 755.036C270.268 757.05 267.515 758.207 264.629 758.279H115.859C113.001 758.21 110.273 757.075 108.21 755.097C106.146 753.119 104.898 750.441 104.709 747.589C104.079 740.649 109.249 734.589 115.859 734.589H264.629C271.169 734.639 276.319 740.489 275.789 747.419Z" stroke="#CCDDE2" stroke-width="3.97" stroke-miterlimit="10"/>
<path d="M189.556 627C189.553 626.782 189.516 626.565 189.446 626.359L189.556 627Z" stroke="#CCDDE2" stroke-width="3.97" stroke-miterlimit="10"/>
<path d="M115.837 535.399C150.267 580.119 166.467 674.4 172.837 723.07C173.377 727.29 173.837 731.16 174.247 734.62" stroke="#CCDDE2" stroke-width="3.97" stroke-miterlimit="10"/>
<path d="M192.586 582.919C188.276 596.189 188.066 609.59 188.586 618.08C188.724 620.82 189.014 623.551 189.456 626.26" stroke="#CCDDE2" stroke-width="3.97" stroke-miterlimit="10"/>
<path d="M752.547 498.309C750.227 499.109 747.947 499.959 745.667 500.829L743.807 501.539C738.427 503.539 733.147 505.679 728.027 507.899C726.267 508.639 724.547 509.379 722.817 510.189C721.417 510.799 720.047 511.399 718.677 512.039L718.027 512.349C716.197 513.189 714.377 514.029 712.587 514.909C710.797 515.789 708.737 516.759 706.847 517.729C705.847 518.169 704.987 518.639 704.077 519.119C702.317 519.989 700.587 520.899 698.857 521.809C698.367 522.079 697.857 522.309 697.427 522.579C695.667 523.529 693.907 524.469 692.177 525.449C690.747 526.219 689.377 526.989 687.967 527.799C638.395 556.07 596.184 595.626 564.757 643.259C494.487 748.829 491.257 865.259 491.127 875.569L490.957 875.271C482.547 820.621 469.677 773.27 453.507 732.27L454.777 728.099L452.567 729.819C452.567 729.819 452.567 729.819 452.567 729.749C455.737 660.319 469.327 602.269 488.817 553.809L490.647 554.219C490.287 553.469 489.927 552.699 489.567 551.959C523.627 468.519 575.267 413.799 621.097 379.089C675.097 338.209 721.167 324.969 721.167 324.969C745.767 355.369 751.367 448.269 752.547 498.309Z" stroke="#CCDDE2" stroke-width="3.97" stroke-miterlimit="10"/>
<path d="M755.818 857.489C748.644 856.049 741.618 854.33 734.738 852.33C706.518 844.08 673.738 829.999 662.498 800.399C659.685 792.752 658.798 784.529 659.916 776.458C661.034 768.386 664.122 760.714 668.908 754.119C673.978 747.086 681.105 741.799 689.308 738.989C707.158 733.219 726.908 742.21 740.148 755.51C753.388 768.81 761.908 785.93 772.278 801.57C762.898 780.57 753.378 758.959 752.088 735.999C751.088 718.099 755.948 698.689 768.288 685.239C779.648 672.859 806.208 663.169 821.848 672.239C832.168 678.239 836.288 690.999 838.058 702.799C842.918 735.089 836.678 767.899 830.468 799.959C834.638 782.819 839.118 765.519 847.618 750.059C856.118 734.599 869.148 720.939 885.838 715.209C897.528 711.209 911.408 711.639 921.198 719.209C930.328 726.209 934.408 738.139 935.668 749.599C937.768 768.819 933.248 788.309 925.468 805.999C896.438 872.029 815.928 869.489 755.818 857.489Z" fill="white"/>
<path d="M821.317 824.799C821.317 824.799 866.067 837.229 881.867 775.029L821.317 824.799Z" fill="white"/>
<path d="M801.409 718.63C788.969 746.83 801.409 831.44 801.409 831.44V718.63Z" fill="white"/>
<path d="M759.936 822.88C758.066 822.56 740.116 820.05 724.816 813.02C712.966 807.58 702.696 799.419 702.696 787.479" fill="white"/>
<path d="M728.407 787.49C728.407 787.49 710.917 807.879 724.817 813.029L728.407 787.49Z" fill="white"/>
<path d="M716.798 831.58C719.288 828.12 732.238 835.059 740.698 818.729L716.798 831.58Z" fill="white"/>
<path d="M795.877 755.959C791.457 752.639 779.877 755.959 778.177 729.409L795.877 755.959Z" fill="white"/>
<path d="M797.806 780.839C797.806 780.839 817.166 773.84 817.166 758.69L797.806 780.839Z" fill="white"/>
<path d="M839.419 825.159C839.419 825.159 849.519 799.089 853.669 787.479L839.419 825.159Z" fill="white"/>
<path d="M870.778 800.25C870.778 800.25 881.868 809.04 895.138 794.94L870.778 800.25Z" fill="white"/>
<path d="M870.777 787.49C870.777 787.49 863.618 784.38 866.938 766.49L870.777 787.49Z" fill="white"/>
<path d="M755.818 857.489C748.578 856.489 741.608 854.34 734.738 852.33C706.518 844.08 673.738 829.999 662.498 800.399C659.685 792.752 658.798 784.529 659.916 776.458C661.034 768.386 664.122 760.714 668.908 754.119C673.978 747.086 681.105 741.799 689.308 738.989C707.158 733.219 726.908 742.21 740.148 755.51C753.388 768.81 761.908 785.93 772.278 801.57C762.898 780.57 753.378 758.959 752.088 735.999C751.088 718.099 755.948 698.689 768.288 685.239C779.648 672.859 806.208 663.169 821.848 672.239C832.168 678.239 836.288 690.999 838.058 702.799C842.918 735.089 836.678 767.899 830.468 799.959C834.638 782.819 839.118 765.519 847.618 750.059C856.118 734.599 869.148 720.939 885.838 715.209C897.528 711.209 911.408 711.639 921.198 719.209C930.328 726.209 934.408 738.139 935.668 749.599C937.768 768.819 933.518 788.439 925.468 805.999C895.968 870.289 814.838 865.429 755.818 857.489Z" stroke="#CCDDE2" stroke-width="3.97" stroke-miterlimit="10"/>
<path d="M821.317 824.799C821.317 824.799 866.067 837.229 881.867 775.029" stroke="#CCDDE2" stroke-width="3.97" stroke-miterlimit="10"/>
<path d="M801.409 718.63C788.969 746.83 801.409 831.44 801.409 831.44" stroke="#CCDDE2" stroke-width="3.97" stroke-miterlimit="10"/>
<path d="M759.936 822.88C758.066 822.56 740.116 820.05 724.816 813.02C712.966 807.58 702.696 799.419 702.696 787.479" stroke="#CCDDE2" stroke-width="3.97" stroke-miterlimit="10"/>
<path d="M728.407 787.49C728.407 787.49 710.917 807.879 724.817 813.029" stroke="#CCDDE2" stroke-width="3.97" stroke-miterlimit="10"/>
<path d="M716.798 831.58C719.288 828.12 732.238 835.059 740.698 818.729" stroke="#CCDDE2" stroke-width="3.97" stroke-miterlimit="10"/>
<path d="M795.877 755.959C791.457 752.639 779.877 755.959 778.177 729.409" stroke="#CCDDE2" stroke-width="3.97" stroke-miterlimit="10"/>
<path d="M797.806 780.839C797.806 780.839 817.166 773.84 817.166 758.69" stroke="#CCDDE2" stroke-width="3.97" stroke-miterlimit="10"/>
<path d="M839.419 825.159C839.419 825.159 849.519 799.089 853.669 787.479" stroke="#CCDDE2" stroke-width="3.97" stroke-miterlimit="10"/>
<path d="M870.778 800.25C870.778 800.25 881.868 809.04 895.138 794.94" stroke="#CCDDE2" stroke-width="3.97" stroke-miterlimit="10"/>
<path d="M870.777 787.49C870.777 787.49 863.618 784.38 866.938 766.49" stroke="#CCDDE2" stroke-width="3.97" stroke-miterlimit="10"/>
<path d="M873.829 631.919C882.77 639.623 890.751 648.377 897.599 657.99C910.187 675.2 917.309 695.798 918.039 717.109" stroke="#CCDDE2" stroke-width="3.97" stroke-miterlimit="10"/>
<path d="M561.957 279.369C579.957 268.529 598.728 258.899 618.688 252.099C668.458 235.099 723.948 238.869 763.378 276.179C797.558 308.489 813.717 356.489 817.017 402.489C817.017 403.159 817.127 403.869 817.157 404.579C818.667 428.279 817.428 454.449 817.258 480.639" stroke="#CCDDE2" stroke-width="3.97" stroke-miterlimit="10"/>
<path d="M169.609 479.189C174.119 450.399 168.609 423.319 165.609 393.689C157.889 316.489 182.439 224.119 271.369 212.569C319.689 206.269 358.909 224.319 391.579 258.939C398.919 266.709 406.259 275.839 414.029 284.659" stroke="#CCDDE2" stroke-width="3.97" stroke-miterlimit="10"/>
<path d="M134.929 734.149C134.929 734.149 67.5788 704.49 74.3188 648.76C76.1988 633.03 83.6088 618.959 92.9688 606.029" stroke="#CCDDE2" stroke-width="3.97" stroke-miterlimit="10"/>
<path d="M743.227 771.31C740.667 769.463 738 767.71 735.227 766.05C707.567 749.68 669.877 743.33 638.277 741.43C636.347 741.29 634.447 741.19 632.567 741.11C630.076 741.001 627.639 740.349 625.427 739.2C623.134 738.043 621.141 736.369 619.607 734.31C618.056 728.218 616.194 722.21 614.027 716.31L609.587 696.31C607.93 690.525 606.631 684.644 605.697 678.7C601.097 648.63 597.697 611.26 596.497 597.27C596.641 597.332 596.792 597.375 596.947 597.4L610.677 601.8C610.726 601.796 610.777 601.796 610.827 601.8L615.697 603.23C634.577 608.59 654.387 612.61 674.057 613.04C692.597 613.43 712.937 610.39 728.776 600.13C730.11 599.29 731.403 598.39 732.657 597.43C744.876 588.23 753.367 574.11 758.177 559.78C767.027 533.275 768.938 504.944 763.727 477.49C762.248 469.931 760.172 462.501 757.516 455.27C750.516 436.02 740.407 417.98 731.727 399.27C729.727 394.91 726.866 390.34 726.516 385.5C726.097 379.73 729.057 374.18 729.987 368.57C731.071 361.829 731.572 355.007 731.487 348.18C731.474 340.082 729.923 332.06 726.917 324.54C724.326 318.22 719.727 307.62 711.557 308.01C708.937 299.63 704.557 289.93 696.847 288.84C694.845 288.533 692.804 289.029 691.167 290.22C690.601 289.409 689.99 288.631 689.337 287.89C686.117 284.27 680.027 281.01 675.137 282.89C665.437 286.73 669.877 300.08 674.687 310.21C672.211 309.677 669.671 309.509 667.147 309.71C661.497 310.21 654.957 312.49 652.767 317.93C651.577 320.93 651.997 326.34 655.037 328.04C658.897 330.15 663.637 328.75 667.497 330.73C671.807 332.95 673.497 338.9 672.867 343.4C672.744 345.164 672.041 346.838 670.867 348.16C664.047 354.98 659.367 336.16 656.777 333.06C653.257 328.83 648.097 329.6 644.427 333.17C637.177 340.17 640.327 354.27 643.367 362.73C646.667 371.99 650.957 381.73 657.807 388.94C669.197 400.89 670.447 419.94 673.457 435.35C674.697 441.72 675.887 448.15 676.847 454.57C678.747 467.03 679.847 479.57 678.847 492.15C678.593 495.603 677.629 498.967 676.014 502.03C674.4 505.092 672.169 507.788 669.463 509.948C666.757 512.108 663.633 513.685 660.288 514.58C656.944 515.475 653.45 515.669 650.027 515.15C641.877 513.91 632.337 512.43 622.177 510.84C622.177 510.84 622.257 510.76 622.307 510.74C608.457 506.03 596.207 505.45 584.017 504.81C549.627 499.49 518.747 494.49 518.747 494.49C518.044 494.36 517.408 493.99 516.948 493.442C516.488 492.895 516.233 492.205 516.227 491.49L515.807 453.31C518.157 456.19 523.257 456.59 526.377 454.92C527.617 454.288 528.637 453.295 529.302 452.073C529.968 450.85 530.248 449.455 530.107 448.07C532.129 448.053 534.117 447.542 535.897 446.58C536.424 446.285 536.929 445.951 537.407 445.58C538.394 444.695 539.19 443.618 539.745 442.414C540.301 441.21 540.604 439.905 540.637 438.58C540.679 437.848 540.642 437.114 540.527 436.39C540.527 436.12 540.447 435.86 540.397 435.57C540.287 435.01 540.157 434.46 539.997 433.87C539.917 433.53 539.817 433.19 539.707 432.87C539.447 431.87 539.157 430.87 538.937 429.87C539.053 429.885 539.17 429.885 539.287 429.87C540.273 429.814 541.254 429.674 542.217 429.45C543.132 429.232 544.026 428.93 544.887 428.55C545.369 428.336 545.84 428.096 546.297 427.83C546.375 427.803 546.447 427.758 546.507 427.7C547.28 427.226 548.013 426.687 548.697 426.09C548.928 425.9 549.149 425.696 549.357 425.48C549.747 425.113 550.118 424.726 550.467 424.32C550.913 423.797 551.33 423.249 551.717 422.68C551.905 422.438 552.072 422.181 552.217 421.91C553.604 419.684 554.618 417.245 555.217 414.69C555.267 414.45 555.327 414.21 555.377 413.98C557.377 404.46 554.377 393.59 546.017 390.04C544.347 389.33 538.427 388.64 538.427 386.13C538.429 385.951 538.456 385.772 538.507 385.6C538.497 385.564 538.497 385.526 538.507 385.49C538.664 385.117 538.892 384.778 539.177 384.49C539.307 384.33 539.487 384.17 539.647 384.01C539.997 383.7 540.387 383.41 540.757 383.11C541.136 382.859 541.5 382.586 541.847 382.29C541.993 382.168 542.134 382.037 542.267 381.9C542.527 381.61 542.797 381.32 543.037 381.03C543.275 380.744 543.495 380.443 543.697 380.13C543.907 379.81 544.117 379.49 544.307 379.13C544.515 378.815 544.693 378.48 544.837 378.13C545.138 377.537 545.386 376.918 545.577 376.28C545.914 375.232 546.125 374.148 546.207 373.05C546.207 372.66 546.207 372.26 546.207 371.86C546.207 363.08 539.047 353.99 529.997 353.03C528.533 352.87 527.053 353.044 525.667 353.54C524.985 353.776 524.317 354.05 523.667 354.36L522.667 354.83C521.987 355.15 521.297 355.49 520.587 355.83C519.988 356.115 519.339 356.278 518.677 356.31C518.525 356.305 518.374 356.285 518.227 356.25L517.937 356.17C517.726 356.124 517.535 356.016 517.387 355.86C517.211 355.732 517.064 355.569 516.957 355.38C516.866 355.197 516.802 355.001 516.767 354.8C516.76 354.788 516.756 354.774 516.756 354.76C516.756 354.746 516.76 354.732 516.767 354.72C516.716 354.487 516.693 354.249 516.697 354.01C516.695 353.516 516.766 353.024 516.907 352.55C517.189 351.517 517.33 350.451 517.327 349.38C517.325 348.992 517.298 348.605 517.247 348.22C517.196 347.686 517.116 347.155 517.007 346.63C516.027 342.762 513.702 339.369 510.447 337.06C501.277 330.58 484.087 330.55 479.347 342.56C479.247 342.74 479.197 342.93 479.117 343.11C478.507 342.4 477.897 341.66 477.287 340.92C476.865 340.648 476.423 340.408 475.967 340.2C469.617 337.43 460.527 338.62 455.897 344.04C452.057 348.54 450.797 355.49 454.207 360.59C452.294 358.12 449.701 356.264 446.747 355.25C447.099 356.239 447.569 357.183 448.147 358.06C447.876 357.692 447.585 357.338 447.277 357C447.037 356.73 446.797 356.49 446.557 356.26C446.317 356.03 445.977 355.7 445.687 355.46C445.397 355.22 445.077 354.96 444.767 354.72C438.817 350.36 430.057 349.91 424.507 355.36C420.167 359.62 419.267 365.51 420.807 371.22C422.347 376.93 426.037 380.9 428.807 385.82C419.417 388.18 411.907 398.59 414.867 408.35C415.485 410.369 416.568 412.215 418.028 413.74C419.489 415.264 421.286 416.426 423.277 417.13C423.989 417.309 424.715 417.433 425.447 417.5C425.691 417.525 425.928 417.6 426.142 417.721C426.356 417.842 426.543 418.005 426.691 418.201C426.84 418.397 426.946 418.622 427.004 418.861C427.061 419.1 427.069 419.348 427.027 419.59C426.877 420.246 426.8 420.917 426.797 421.59C426.803 423.201 427.223 424.784 428.019 426.185C428.814 427.586 429.956 428.759 431.337 429.59C431.541 429.704 431.721 429.86 431.864 430.046C432.006 430.232 432.109 430.446 432.167 430.673C432.224 430.901 432.234 431.138 432.196 431.369C432.158 431.601 432.073 431.822 431.947 432.02C430.556 433.997 429.739 436.32 429.586 438.733C429.432 441.145 429.948 443.552 431.077 445.69C434.167 451.88 441.737 457.25 448.877 455.13C451.174 454.434 453.162 452.968 454.507 450.98C454.65 450.83 454.775 450.662 454.877 450.48C454.903 450.42 454.94 450.366 454.987 450.32C456.015 448.785 456.697 447.045 456.987 445.22C458.746 448.009 460.715 450.66 462.877 453.15L464.177 454.6L460.227 478.96L459.647 483.35C459.432 484.869 458.677 486.26 457.52 487.266C456.362 488.273 454.88 488.828 453.347 488.83C452.477 488.83 451.577 488.83 450.707 488.83C448.937 488.83 447.187 488.88 445.447 488.93C440.157 489.06 434.887 489.3 429.627 489.62C425.627 489.88 421.717 490.17 417.787 490.52C415.787 490.68 413.867 490.86 411.887 491.07C409.907 491.28 407.947 491.47 405.987 491.68C402.157 492.11 398.297 492.55 394.457 493.06C389.827 493.67 385.227 494.3 380.597 494.96C373.357 496.02 366.137 497.18 358.887 498.43C351.827 499.65 344.797 500.92 337.737 502.21C327.817 504.04 317.797 505.57 307.737 507.21C305.095 507.637 302.393 507.495 299.81 506.794C297.228 506.093 294.825 504.849 292.762 503.145C290.698 501.442 289.022 499.317 287.845 496.914C286.668 494.511 286.018 491.885 285.937 489.21C284.807 456.21 303.497 396.02 303.497 396.02C303.927 391.34 309.497 388.02 312.757 385.36C322.087 377.99 327.597 364.79 330.817 353.68C333.097 345.75 335.257 334.43 328.547 327.93C324.867 324.36 319.707 323.59 316.197 327.82C313.607 330.94 308.927 349.74 302.097 342.92C300.922 341.598 300.219 339.924 300.097 338.16C299.507 333.67 301.097 327.72 305.457 325.49C309.317 323.49 314.057 324.91 317.917 322.8C320.917 321.1 321.377 315.66 320.187 312.69C317.997 307.25 311.467 304.97 305.807 304.47C303.282 304.269 300.742 304.437 298.267 304.97C303.077 294.84 307.527 281.49 297.817 277.66C292.927 275.73 286.817 278.98 283.617 282.6C282.966 283.342 282.359 284.119 281.797 284.93C280.154 283.743 278.111 283.247 276.107 283.55C268.357 284.64 264.027 294.34 261.407 302.73C253.317 302.33 248.737 312.73 246.117 319.04C243.147 326.308 241.57 334.069 241.467 341.92C241.217 350.271 241.806 358.627 243.227 366.86C243.887 370.41 245.077 373.79 245.927 377.26C246.857 381.04 245.847 384.79 244.477 388.34C239.107 401.93 231.537 414.65 225.857 428.14C219.698 442.417 214.76 457.189 211.097 472.3C204.037 502.13 202.587 533.76 210.837 563.51C226.437 619.73 305.477 601.27 350.757 585.51C369.687 578.93 382.757 572.79 382.757 572.79C382.757 572.79 382.857 577.15 382.857 584.53V585.53C382.807 595.53 381.937 675.31 368.497 733.89L368.047 734.66C368.157 734.58 368.367 734.58 368.497 735.29C367.758 736.89 366.576 738.244 365.09 739.19C363.605 740.137 361.878 740.637 360.117 740.63C327.937 740.5 192.427 745.07 218.117 832.63C222.927 849.08 235.487 859.63 253.117 865.87C267.117 870.87 284.327 873.04 303.387 873.2H303.517C266.257 880.26 257.587 935.69 299.157 944.07C315.157 947.29 327.827 936.93 342.207 932.51C350.425 930.081 358.982 928.993 367.547 929.29C373.136 929.424 378.709 929.946 384.227 930.85C444.637 940.741 505.94 944.073 567.067 940.79C608.397 938.52 650.527 933.33 689.747 919.5C719.307 909.06 751.747 890.79 766.307 862.5C771.466 852.543 774.132 841.484 774.076 830.27C774.037 803.62 761.717 784.66 743.227 771.31Z" fill="white"/>
<path d="M119.648 864.37L118.138 862.94" stroke="#CCDDE2" stroke-width="3.97" stroke-miterlimit="10"/>
<path d="M614.056 714.849L609.606 694.799C607.952 689.014 606.656 683.134 605.726 677.19C601.126 647.12 597.726 609.76 596.516 595.77L610.856 600.339L605.856 589.209C605.856 589.209 589.386 533.78 622.336 509.37C598.506 501.26 579.416 505.429 557.116 500.299C548.526 498.299 539.456 496.55 529.436 494.91L522.186 493.639C521.896 513.339 508.186 517.81 496.906 519.95C469.136 525.27 449.906 505.01 450.706 487.37C419.876 487.72 389.406 491.79 358.896 496.97C362.836 508.53 371.136 543.17 347.786 584.13L350.786 584.029C369.716 577.439 382.786 571.31 382.786 571.31C382.786 571.31 382.896 575.669 382.896 583.049V584.049C382.846 593.989 381.976 673.829 368.536 732.399C367.536 734.309 368.316 731.96 368.536 734.08C367.72 735.708 367.16 737.451 366.876 739.25L367.526 736.659C363.906 741.849 372.966 748.14 386.056 751.31C420.276 759.67 608.906 774.31 619.556 739.25C620.182 737.159 620.203 734.933 619.616 732.83C618.068 726.746 616.212 720.744 614.056 714.849Z" fill="#353642"/>
<path d="M367.538 927.779C358.982 927.492 350.437 928.584 342.228 931.01C327.838 935.42 315.148 945.79 299.168 942.56C257.598 934.18 266.278 878.75 303.538 871.69C307.108 871.61 310.678 871.589 314.218 871.589H314.458C331.618 871.589 348.338 872.039 362.058 867.299C360.768 868.489 327.338 898.139 367.538 927.779Z" fill="#3B82F6"/>
<path d="M522.157 493.599V493.65C521.867 513.35 508.157 517.819 496.877 519.959C469.107 525.279 449.877 505.02 450.677 487.38" stroke="black" stroke-width="3.97" stroke-miterlimit="10"/>
<path d="M303.569 871.69C266.309 878.75 257.629 934.18 299.199 942.56C315.199 945.79 327.869 935.42 342.259 931.01C350.474 928.582 359.027 927.491 367.589 927.779C373.166 927.932 378.726 928.471 384.229 929.39C444.637 939.301 505.94 942.654 567.069 939.39C608.399 937.11 650.519 931.929 689.739 918.099C719.309 907.649 751.739 889.379 766.299 861.099C771.461 851.14 774.128 840.077 774.069 828.859C774.069 802.179 761.719 783.219 743.269 769.859C740.699 768.009 738.029 766.269 735.269 764.599C707.609 748.229 669.929 741.879 638.329 739.979C636.399 739.849 634.489 739.739 632.619 739.659C630.128 739.557 627.691 738.909 625.479 737.76C623.183 736.609 621.189 734.934 619.659 732.87C618.17 730.915 617.122 728.66 616.589 726.26L614.079 714.859L609.629 694.81L605.729 677.19C601.129 647.12 597.729 609.76 596.519 595.77" stroke="black" stroke-width="3.97" stroke-miterlimit="10"/>
<path d="M651.399 844.799C639.069 872.989 608.579 863.339 575.079 843.049C554.289 830.459 536.549 828.669 526.079 829.049C540.839 827.729 553.739 823.179 557.369 806.489C560.299 792.929 552.659 780.489 539.439 776.489C571.219 775.089 603.829 777.489 629.689 797.489C629.709 797.489 663.749 816.579 651.399 844.799Z" fill="#3B82F6"/>
<path d="M539.226 428.29C539.113 428.305 538.999 428.305 538.886 428.29C539.196 429.85 539.786 431.52 540.176 433.18C540.489 434.435 540.624 435.727 540.576 437.02C540.156 443.07 535.866 446.35 530.046 446.51C530.194 447.898 529.917 449.299 529.253 450.527C528.589 451.755 527.569 452.753 526.326 453.39C523.206 455.03 518.096 454.66 515.746 451.77C512.966 448.42 514.346 444.26 516.036 440.59C516.646 439.3 517.256 438.08 517.756 436.97C518.366 435.59 518.896 434.22 519.366 432.82C521.031 427.639 522.321 422.346 523.226 416.98C524.333 411.56 525.065 406.07 525.416 400.55C525.046 399.21 525.286 397.27 524.756 395.87C523.985 393.709 522.594 391.824 520.756 390.45C516.956 387.65 511.896 387.83 507.856 385.35C504.199 383.072 501.313 379.744 499.576 375.8C499.236 374.98 498.916 373.92 498.436 373C498.222 372.5 497.897 372.056 497.486 371.7C495.666 370.17 494.606 372.87 493.486 373.92C492.338 374.98 490.977 375.784 489.495 376.277C488.012 376.77 486.441 376.941 484.886 376.78C483.711 376.625 482.567 376.288 481.496 375.78C480.71 375.352 479.975 374.836 479.306 374.24C478.512 373.467 477.588 372.841 476.576 372.39C474.676 371.68 474.576 374.82 474.306 375.91C474.126 376.852 473.734 377.741 473.161 378.51C472.588 379.279 471.848 379.908 470.996 380.35C469.969 380.855 468.841 381.125 467.696 381.14C466.362 381.194 465.029 381.014 463.756 380.61C462.527 380.245 461.358 379.703 460.286 379C460.094 378.87 459.869 378.797 459.638 378.789C459.406 378.781 459.176 378.838 458.975 378.953C458.774 379.069 458.61 379.239 458.5 379.443C458.391 379.647 458.341 379.878 458.356 380.11C458.726 390.45 449.056 394.05 445.086 395.11C443.752 412.175 447.923 429.219 456.986 443.74C456.652 445.841 455.795 447.825 454.496 449.51C447.966 451.15 440.426 449.37 437.596 443.74C434.596 437.74 435.006 429.43 439.666 425.15C436.436 424.65 435.536 419.88 437.386 417.08C437.546 416.81 437.616 416.65 437.516 416.39C437.116 415.3 432.366 414.39 431.066 413.99C429.211 413.328 427.537 412.242 426.176 410.818C424.814 409.394 423.805 407.673 423.226 405.79C420.476 396.72 427.456 387.04 436.176 384.85C433.586 380.27 430.176 376.57 428.726 371.28C427.276 365.99 428.096 360.49 432.136 356.49C433.78 354.927 435.788 353.799 437.978 353.209C440.167 352.619 442.47 352.585 444.676 353.11C445.963 354.045 447.102 355.167 448.056 356.44C447.469 355.572 446.999 354.63 446.656 353.64C449.616 354.644 452.211 356.502 454.116 358.98C450.706 353.88 451.976 346.92 455.806 342.42C460.436 337 469.536 335.81 475.876 338.59C476.335 338.796 476.779 339.034 477.206 339.3C477.806 340.05 478.416 340.79 479.026 341.5C479.094 341.308 479.174 341.121 479.266 340.94C480.554 342.263 481.772 343.651 482.916 345.1C487.036 333.38 503.406 333.35 512.056 339.46C514.094 340.913 515.762 342.825 516.926 345.04C517.365 346.987 517.327 349.011 516.816 350.94C516.286 352.79 516.706 354.19 517.896 354.59C518.791 354.808 519.735 354.686 520.546 354.25C523.716 352.82 526.336 351.07 530.016 351.47C542.016 352.74 550.766 368.34 543.656 378.52C543.235 379.152 542.756 379.745 542.226 380.29C541.226 381.29 538.976 382.46 538.476 383.89C538.462 383.925 538.462 383.964 538.476 384C537.576 387 544.216 387.67 545.986 388.44C561.666 395.05 558.356 427.29 539.226 428.29Z" fill="#3B82F6"/>
<path d="M266.629 346.979C262.899 339.039 265.629 327.909 269.879 319.499C273.129 312.969 270.539 302.499 262.239 301.329C253.619 300.169 248.799 311.039 246.109 317.599C243.134 324.869 241.553 332.634 241.449 340.489C241.228 348.842 241.841 357.197 243.279 365.429C243.939 368.969 245.129 372.359 245.969 375.819C246.899 379.599 245.889 383.359 244.519 386.899C239.149 400.489 231.589 413.209 225.899 426.699C219.749 440.978 214.815 455.75 211.149 470.859C204.089 500.689 202.629 532.319 210.879 562.069C226.479 618.289 305.529 599.829 350.799 584.069C369.729 577.479 382.799 571.349 382.799 571.349C382.799 571.349 382.909 575.709 382.909 583.089C382.909 583.429 382.909 583.779 382.909 584.089C382.969 613.759 381.779 688.309 368.999 732.599C368.446 734.509 367.284 736.186 365.69 737.376C364.096 738.565 362.158 739.202 360.169 739.189C327.989 739.059 192.489 743.63 218.169 831.14C226.849 860.7 260.459 871.33 303.399 871.7H303.589C307.079 871.7 310.649 871.699 314.269 871.599H314.509C330.46 871.045 346.368 869.606 362.159 867.289C418.099 859.409 477.619 842.589 516.069 830.469C518.286 829.884 520.552 829.506 522.839 829.339C523.789 829.229 524.839 829.149 526.019 829.099H526.119C536.569 828.679 554.309 830.469 575.119 843.099C608.619 863.389 639.119 873.039 651.439 844.849C663.759 816.659 629.709 797.489 629.709 797.489C603.849 777.489 571.239 775.119 539.459 776.489C529.649 776.919 519.889 777.739 510.459 778.489C472.719 781.495 434.972 784.495 397.219 787.489L347.759 791.489" stroke="black" stroke-width="3.97" stroke-miterlimit="10"/>
<path d="M280.078 341.679C280.078 341.679 274.688 330.789 281.358 313.759C284.108 306.759 287.278 298.289 285.978 290.619C285.571 287.78 284.062 285.215 281.778 283.479C280.136 282.291 278.091 281.798 276.088 282.109C268.348 283.189 264.008 292.899 261.388 301.279" stroke="black" stroke-width="3.97" stroke-miterlimit="10"/>
<path d="M291.338 335.36C291.338 335.36 286.218 326.69 293.198 313.36C294.368 311.14 296.348 307.59 298.198 303.55C303.018 293.42 307.458 280.07 297.748 276.23C292.858 274.3 286.748 277.55 283.548 281.18C282.898 281.918 282.29 282.693 281.728 283.5" stroke="black" stroke-width="3.97" stroke-miterlimit="10"/>
<path d="M298.228 303.489C300.703 302.951 303.244 302.783 305.768 302.989C311.428 303.489 317.958 305.759 320.158 311.209C321.348 314.209 320.918 319.619 317.878 321.309C314.018 323.429 309.288 322.029 305.428 324.009C301.118 326.229 299.428 332.179 300.058 336.679C300.18 338.443 300.883 340.117 302.058 341.439C308.878 348.259 313.558 329.439 316.148 326.339C319.668 322.109 324.818 322.869 328.498 326.439C335.218 332.939 333.048 344.249 330.758 352.189C327.548 363.299 322.038 376.499 312.758 383.859C309.438 386.479 303.918 389.859 303.498 394.539C303.498 394.539 284.808 454.689 285.928 487.719C286.009 490.393 286.659 493.018 287.836 495.421C289.012 497.823 290.687 499.947 292.749 501.65C294.812 503.354 297.214 504.598 299.795 505.3C302.376 506.001 305.077 506.144 307.718 505.719C317.718 504.089 327.778 502.559 337.718 500.719C344.778 499.429 351.808 498.159 358.868 496.939C390.258 491.599 421.598 487.449 453.328 487.309C454.861 487.312 456.344 486.761 457.502 485.755C458.66 484.75 459.415 483.358 459.628 481.839L460.228 477.489L464.178 453.079" stroke="black" stroke-width="3.97" stroke-miterlimit="10"/>
<path d="M706.318 352.269C710.048 344.329 707.318 333.199 703.068 324.789C699.788 318.259 702.408 307.789 710.708 306.619C710.998 306.619 711.288 306.569 711.558 306.569C719.728 306.169 724.328 316.779 726.918 323.099C729.929 330.618 731.483 338.64 731.498 346.739C731.575 353.567 731.07 360.388 729.988 367.129C729.068 372.729 726.099 378.289 726.529 384.049C726.869 388.889 729.728 393.469 731.738 397.829C740.408 416.499 750.558 434.529 757.518 453.829C760.172 461.057 762.248 468.483 763.728 476.039C768.954 503.485 767.06 531.813 758.228 558.319C753.408 572.659 744.928 586.779 732.708 595.979C731.441 596.933 730.145 597.833 728.818 598.679C712.978 608.939 692.638 611.979 674.108 611.579C654.428 611.159 634.628 607.14 615.738 601.77C612.438 600.824 609.151 599.824 605.878 598.77C602.438 597.68 599.028 596.569 595.618 595.409C592.048 594.169 588.478 592.919 584.938 591.599" stroke="black" stroke-width="3.97" stroke-miterlimit="10"/>
<path d="M711.556 306.568C708.936 298.188 704.556 288.479 696.856 287.399C694.853 287.087 692.808 287.58 691.166 288.769C688.882 290.504 687.373 293.069 686.966 295.909C685.666 303.579 688.836 312.039 691.586 319.049C698.256 336.049 692.856 346.979 692.856 346.979" stroke="black" stroke-width="3.97" stroke-miterlimit="10"/>
<path d="M691.166 288.77C690.606 287.95 689.976 287.19 689.346 286.44C686.116 282.82 680.036 279.57 675.136 281.5C665.436 285.33 669.876 298.69 674.696 308.82C676.596 312.82 678.576 316.41 679.696 318.63C686.696 331.98 681.546 340.63 681.546 340.63" stroke="black" stroke-width="3.97" stroke-miterlimit="10"/>
<path d="M674.696 308.82C672.22 308.284 669.68 308.112 667.156 308.31C661.496 308.82 654.966 311.09 652.766 316.54C651.576 319.54 652.006 324.95 655.046 326.64C658.906 328.76 663.636 327.35 667.496 329.34C671.806 331.56 673.496 337.51 672.866 342.01C672.743 343.774 672.04 345.448 670.866 346.77C664.046 353.59 659.366 334.77 656.776 331.67C653.256 327.43 648.106 328.2 644.426 331.77C637.176 338.77 640.326 352.87 643.366 361.34C646.676 370.59 650.956 380.34 657.806 387.54C669.206 399.54 670.446 418.54 673.466 433.95C674.706 440.33 675.896 446.75 676.846 453.18C678.746 465.63 679.846 478.18 678.846 490.76C678.591 494.214 677.626 497.577 676.01 500.64C674.394 503.703 672.163 506.399 669.455 508.558C666.748 510.718 663.624 512.295 660.279 513.19C656.934 514.085 653.439 514.279 650.016 513.76C605.296 506.91 518.746 493 518.746 493C518.037 492.878 517.395 492.51 516.93 491.962C516.466 491.413 516.209 490.719 516.206 490L515.786 451.81" stroke="black" stroke-width="3.97" stroke-miterlimit="10"/>
<path d="M445.048 395.079C443.218 414.749 450.048 436.989 462.848 451.649C486.728 478.959 506.848 451.649 506.848 451.649" stroke="black" stroke-width="3.97" stroke-miterlimit="10"/>
<path d="M525.679 401.179C524.979 399.879 525.389 397.529 524.789 395.879C524.014 393.717 522.624 391.83 520.789 390.449C516.969 387.659 511.919 387.829 507.889 385.369C504.229 383.079 501.338 379.746 499.589 375.799C499.029 374.539 498.589 372.619 497.519 371.709C495.689 370.179 494.629 372.869 493.519 373.929C491.935 375.405 489.945 376.371 487.805 376.703C485.666 377.034 483.476 376.716 481.519 375.789C479.719 374.899 478.469 373.109 476.589 372.399C474.709 371.689 474.589 374.819 474.309 375.919C474.13 376.86 473.742 377.749 473.172 378.519C472.602 379.289 471.867 379.921 471.019 380.369C467.709 381.999 463.189 380.929 460.309 378.999C460.116 378.865 459.889 378.79 459.655 378.78C459.421 378.771 459.189 378.828 458.985 378.946C458.782 379.063 458.617 379.235 458.508 379.443C458.399 379.651 458.351 379.885 458.369 380.119C458.819 393.119 443.419 395.449 443.419 395.449" stroke="black" stroke-width="3.97" stroke-miterlimit="10"/>
<path d="M466.777 423.69C474.476 423.69 480.717 417.449 480.717 409.75C480.717 402.051 474.476 395.81 466.777 395.81C459.079 395.81 452.837 402.051 452.837 409.75C452.837 417.449 459.079 423.69 466.777 423.69Z" stroke="black" stroke-width="3.97" stroke-miterlimit="10"/>
<path d="M502.906 422.449C510.605 422.449 516.846 416.208 516.846 408.509C516.846 400.81 510.605 394.569 502.906 394.569C495.207 394.569 488.966 400.81 488.966 408.509C488.966 416.208 495.207 422.449 502.906 422.449Z" stroke="black" stroke-width="3.97" stroke-miterlimit="10"/>
<path d="M460.946 411.15C460.946 411.15 466.566 417.6 472.346 411.15" stroke="black" stroke-width="3.97" stroke-miterlimit="10"/>
<path d="M497.228 411.15C497.228 411.15 502.848 417.6 508.638 411.15" stroke="black" stroke-width="3.97" stroke-miterlimit="10"/>
<path d="M486.516 441.899C489.228 441.899 491.426 439.701 491.426 436.989C491.426 434.277 489.228 432.079 486.516 432.079C483.804 432.079 481.606 434.277 481.606 436.989C481.606 439.701 483.804 441.899 486.516 441.899Z" stroke="black" stroke-width="3.97" stroke-miterlimit="10"/>
<path d="M480.716 409.75C480.716 409.75 483.876 404.599 488.966 408.509" stroke="black" stroke-width="3.97" stroke-miterlimit="10"/>
<path d="M474.308 389.06C474.308 389.06 459.838 378 447.708 388.43" stroke="black" stroke-width="3.97" stroke-miterlimit="10"/>
<path d="M516.647 383.26C516.647 383.26 499.457 377.26 491.157 390.91" stroke="black" stroke-width="3.97" stroke-miterlimit="10"/>
<path d="M456.527 443.26C456.494 445.578 455.732 447.826 454.35 449.687C452.968 451.549 451.036 452.928 448.827 453.63C441.687 455.74 434.127 450.38 431.027 444.19C429.897 442.051 429.381 439.641 429.537 437.226C429.692 434.812 430.513 432.487 431.907 430.51C432.032 430.312 432.115 430.091 432.151 429.86C432.187 429.629 432.176 429.393 432.118 429.167C432.06 428.94 431.956 428.728 431.814 428.543C431.671 428.358 431.492 428.204 431.287 428.09C429.899 427.255 428.751 426.075 427.956 424.664C427.16 423.253 426.744 421.66 426.747 420.04C426.751 419.368 426.824 418.697 426.967 418.04C427.013 417.797 427.007 417.547 426.951 417.307C426.895 417.066 426.789 416.84 426.64 416.642C426.491 416.444 426.303 416.28 426.088 416.159C425.872 416.038 425.633 415.964 425.387 415.94C424.659 415.874 423.937 415.754 423.227 415.58C421.238 414.874 419.441 413.713 417.98 412.188C416.52 410.664 415.437 408.818 414.817 406.8C411.817 397.04 419.367 386.62 428.757 384.27C425.957 379.35 422.247 375.38 420.757 369.67C419.267 363.96 420.127 358.06 424.457 353.8C431.207 347.19 442.657 349.25 448.097 356.5C444.427 351 445.797 343.5 449.927 338.68C454.927 332.86 464.677 331.59 471.507 334.55C474.757 335.98 476.847 338.94 479.067 341.55C483.507 328.99 501.067 328.91 510.407 335.49C515.267 338.96 518.407 345.25 516.857 350.99C516.037 353.9 517.547 355.64 520.587 354.3C523.627 352.96 526.377 351.12 530.057 351.52C542.797 352.87 551.847 370.32 542.267 380.34C541.267 381.4 539.017 382.51 538.517 383.94C537.427 386.94 544.197 387.72 545.997 388.49C561.817 395.13 558.347 427.71 538.997 428.37C539.577 431.14 540.897 434.21 540.687 437.07C540.267 443.12 535.977 446.4 530.157 446.59C530.3 447.974 530.021 449.369 529.357 450.591C528.693 451.813 527.676 452.807 526.437 453.44C523.317 455.1 518.207 454.71 515.857 451.82C512.097 447.28 515.957 441.33 517.857 436.99C520.657 430.64 522.037 423.79 523.307 416.99C524.47 411.356 525.218 405.644 525.547 399.9V399.66" stroke="black" stroke-width="3.97" stroke-miterlimit="10"/>
<path d="M50.2275 864.37H253.458" stroke="black" stroke-width="3.97" stroke-miterlimit="10"/>
<path d="M764.849 864.37H950.229" stroke="black" stroke-width="3.97" stroke-miterlimit="10"/>
</svg>
